<svg width="128" height="128" viewBox="0 0 128 128" fill="none" xmlns="http://www.w3.org/2000/svg">
<path d="M126.078 79.4819C117.53 113.768 82.804 134.634 48.5139 126.084C14.2382 117.536 -6.62763 82.8079 1.92379 48.5246C10.4677 14.2348 45.1939 -6.63256 79.4734 1.9151C113.761 10.4628 134.626 45.1949 126.077 79.4825L126.078 79.4819H126.078Z" fill="#F7931A"/>
<path d="M92.2212 54.8816C93.4951 46.3646 87.0108 41.7864 78.1441 38.7322L81.0205 27.1952L73.9976 25.4453L71.1974 36.6785C69.3511 36.218 67.4551 35.7842 65.5706 35.354L68.3911 24.0466L61.3725 22.2967L58.4945 33.8299C56.9667 33.4821 55.466 33.1383 54.0102 32.776L54.0183 32.7397L44.3335 30.3213L42.4653 37.8222C42.4653 37.8222 47.6757 39.0166 47.5659 39.0901C50.4098 39.7999 50.9241 41.6825 50.8387 43.1747L47.5622 56.3181C47.758 56.3678 48.012 56.4398 48.2923 56.5524C48.058 56.4942 47.8087 56.4307 47.55 56.3687L42.9574 74.7808C42.6098 75.6448 41.7277 76.9414 39.7393 76.4491C39.8097 76.551 34.635 75.1752 34.635 75.1752L31.1482 83.2142L40.2874 85.4925C41.9876 85.9189 43.6537 86.365 45.2945 86.7845L42.3884 98.4539L49.4032 100.204L52.2812 88.6583C54.1975 89.1786 56.0573 89.6584 57.8779 90.1108L55.0096 101.602L62.0329 103.352L64.9387 91.7043C76.9143 93.9708 85.919 93.057 89.7092 82.2251C92.7634 73.5041 89.5572 68.4739 83.2569 65.1936C87.8457 64.1353 91.3022 61.1171 92.2237 54.8825L92.2216 54.8809L92.2212 54.8816ZM76.1755 77.3819C74.0051 86.1029 59.3216 81.3886 54.561 80.2064L58.4176 64.7465C63.1778 65.935 78.4438 68.2868 76.1758 77.3819H76.1755ZM78.3474 54.7552C76.3675 62.6878 64.1463 58.6577 60.1819 57.6695L63.6784 43.6483C67.6428 44.6365 80.4099 46.4809 78.348 54.7552H78.3474Z" fill="white"/>
</svg>
